<svg width="30" height="24" viewBox="0 0 30 24" fill="none" xmlns="http://www.w3.org/2000/svg">
<path d="M0 1.70571C0 0.762857 0.669 0 1.4925 0H13.5075C13.9033 1.34821e-08 14.283 0.179708 14.5629 0.499592C14.8428 0.819475 15 1.25333 15 1.70571C15 2.1581 14.8428 2.59195 14.5629 2.91184C14.283 3.23172 13.9033 3.41143 13.5075 3.41143H1.4925C1.09666 3.41143 0.717041 3.23172 0.437143 2.91184C0.157245 2.59195 0 2.1581 0 1.70571Z" fill="black"/>
<path d="M0 12C0 11.0571 0.669 10.2943 1.4925 10.2943H28.5075C28.9033 10.2943 29.283 10.474 29.5629 10.7938C29.8428 11.1137 30 11.5476 30 12C30 12.4523 29.8428 12.8862 29.5629 13.2061C29.283 13.526 28.9033 13.7057 28.5075 13.7057H1.4925C1.09666 13.7057 0.717041 13.526 0.437143 13.2061C0.157245 12.8862 0 12.4523 0 12Z" fill="black"/>
<path d="M1.4925 20.5885C1.09666 20.5885 0.717041 20.7682 0.437143 21.0881C0.157245 21.408 0 21.8418 0 22.2942C0 22.7466 0.157245 23.1805 0.437143 23.5003C0.717041 23.8202 1.09666 23.9999 1.4925 23.9999H19.5075C19.9033 23.9999 20.283 23.8202 20.5629 23.5003C20.8428 23.1805 21 22.7466 21 22.2942C21 21.8418 20.8428 21.408 20.5629 21.0881C20.283 20.7682 19.9033 20.5885 19.5075 20.5885H1.4925Z" fill="black"/>
</svg>
