<svg width="25" height="21" viewBox="0 0 25 21" fill="black" xmlns="http://www.w3.org/2000/svg">
<path d="M3.125 3.75C3.125 2.75544 3.53655 1.80161 4.26911 1.09835C5.00168 0.395088 5.99525 0 7.03125 0H21.0938C22.1298 0 23.1233 0.395088 23.8559 1.09835C24.5884 1.80161 25 2.75544 25 3.75V14.25C25 15.2446 24.5884 16.1984 23.8559 16.9016C23.1233 17.6049 22.1298 18 21.0938 18H7.03125C5.99525 18 5.00168 17.6049 4.26911 16.9016C3.53655 16.1984 3.125 15.2446 3.125 14.25V3.75ZM13.6656 10.3965L4.6875 5.9415V14.25C4.6875 14.8467 4.93443 15.419 5.37397 15.841C5.81351 16.2629 6.40965 16.5 7.03125 16.5H21.0938C21.7154 16.5 22.3115 16.2629 22.751 15.841C23.1906 15.419 23.4375 14.8467 23.4375 14.25V5.9445L14.4594 10.3965L14.3313 10.4535C14.2228 10.4918 14.1069 10.5066 13.9918 10.4968C13.8767 10.4869 13.7653 10.4527 13.6656 10.3965ZM21.0938 1.5H7.03125C6.40965 1.5 5.81351 1.73705 5.37397 2.15901C4.93443 2.58097 4.6875 3.15326 4.6875 3.75V4.2015L14.0625 8.88L23.4375 4.203V3.75C23.4375 3.15326 23.1906 2.58097 22.751 2.15901C22.3115 1.73705 21.7154 1.5 21.0938 1.5Z" fill="black" fill-opacity="0.7"/>
<path d="M17.9688 21C19.2469 21 20.3813 20.4105 21.0938 19.5H7.03125C5.58085 19.5 4.18985 18.9469 3.16426 17.9623C2.13867 16.9777 1.5625 15.6424 1.5625 14.25V3.75C0.614062 4.434 0 5.523 0 6.75V14.25C0 16.0402 0.74079 17.7571 2.05941 19.023C3.37802 20.2888 5.16645 21 7.03125 21H17.9688Z" fill="black" fill-opacity="1"/>
</svg>
